<svg version="1.1" id="Layer_1" xmlns="http://www.w3.org/2000/svg" x="0" y="0" width="309.6" height="137.2" xml:space="preserve"><style>.st0{fill:#0b1944}.st1{fill:#ca0733}.st2{fill:#00a9e7}</style><path class="st0" d="M148.2 14.6c0 3.1-1 5.6-3 7.4-2 1.8-4.4 2.8-7.1 2.8-2.8 0-5.3-.9-7.3-2.8-2-1.8-3-4.3-3-7.4 0-3.2 1-5.7 3-7.6 2-1.8 4.4-2.8 7.3-2.8 2.7 0 5.1.9 7.1 2.8s3 4.4 3 7.6zM214.9 47.3c-1.8 1.9-4.2 4.6-7.2 8.1s-6.2 7.4-9.6 11.6c-3.4 4.3-6.8 8.7-10.2 13.3-3.4 4.6-6.5 9.1-9.3 13.3h37.1v13.9h-57.2V97.3c2-3.7 4.5-7.7 7.6-12 3-4.3 6.1-8.6 9.3-13 3.2-4.4 6.4-8.5 9.6-12.4 3.2-3.9 6-7.4 8.5-10.3h-33.1V35.7H215v11.6zM292.3 71.9c0 5.8-.9 11-2.5 15.6-1.7 4.6-4.1 8.6-7.3 11.9-3.2 3.3-7 5.8-11.5 7.6-4.5 1.7-9.6 2.6-15.3 2.6-5.5 0-10.7-.4-15.7-1.2-5-.8-9.1-1.7-12.4-2.8V3.8L244.2 1v37.3c1.9-1 4.3-1.9 7.1-2.8 2.8-.8 5.9-1.2 9.3-1.2 5 0 9.6.9 13.5 2.7 4 1.8 7.3 4.3 10 7.6s4.7 7.3 6.1 11.9c1.4 4.7 2.1 9.8 2.1 15.4zm-17.1-.3c0-7.1-1.4-12.6-4.2-16.8-2.8-4.1-7.2-6.2-13.3-6.2-2.8 0-5.3.4-7.8 1.2-2.4.8-4.4 1.7-5.8 2.7V94c1.2.3 2.7.5 4.6.8 1.9.2 4.1.3 6.8.3 6.1 0 11-2.1 14.4-6.3 3.6-4.1 5.3-9.9 5.3-17.2zM129.3 35.7c2.2 22.6 2.4 46.6.5 71.9h17V35.7h-17.5z"/><path class="st1" d="M142.7 121c.7 0 1.4.1 1.9.3.5.2 1 .5 1.3.9.3.4.6.8.8 1.3.2.5.3 1.1.3 1.7 0 1-.2 2-.5 3s-.8 1.8-1.5 2.6-1.5 1.4-2.5 1.8c-1 .5-2.2.7-3.6.7h-.5c-.2 0-.4 0-.5-.1l-1 4.1h-2.1l3.7-15.4c.6-.3 1.3-.5 2.1-.6.8-.2 1.5-.3 2.1-.3zm-4.3 10.4c.1 0 .3.1.5.1h.5c.9 0 1.6-.2 2.3-.5.7-.3 1.3-.8 1.7-1.3.5-.6.8-1.2 1.1-1.9.3-.7.4-1.5.4-2.3 0-.3 0-.7-.1-1-.1-.3-.2-.6-.4-.8-.2-.2-.5-.4-.8-.6-.3-.1-.8-.2-1.3-.2-.4 0-.7 0-1 .1-.3.1-.6.1-.8.2l-2.1 8.2zM156.2 133.2c-.1-.2-.2-.3-.2-.6-.1-.2-.1-.4-.2-.6-.3.3-.8.6-1.3.9-.6.3-1.2.5-2.1.5-.7 0-1.2-.1-1.7-.3-.5-.2-.9-.5-1.2-.9-.3-.4-.5-.8-.7-1.3-.1-.5-.2-1.1-.2-1.7 0-1 .2-2 .5-3s.8-1.8 1.5-2.6 1.5-1.4 2.5-1.8c1-.5 2.2-.7 3.6-.7.4 0 .9 0 1.4.1.5.1 1 .2 1.4.5l-1.7 7.1c-.1.3-.1.7-.2 1-.1.3-.1.6-.1 1 0 .3 0 .7.1 1 .1.4.2.7.3 1.1l-1.7.3zm-3.4-1.7c.6 0 1.2-.1 1.6-.4l1.2-.9c0-.3 0-.5.1-.8 0-.3.1-.6.1-.9l1.3-5.6c-.1 0-.2-.1-.4-.1h-.5c-.9 0-1.6.2-2.3.5-.7.3-1.3.8-1.8 1.3-.5.6-.9 1.2-1.1 1.9-.3.7-.4 1.5-.4 2.3 0 .3 0 .6.1 1l.3.9c.2.2.4.5.6.6.4.2.8.2 1.2.2zM163.3 131.6c.3 0 .6 0 1-.1l.9-.3c.3-.1.5-.3.6-.6.2-.2.2-.5.2-.9 0-.2 0-.4-.1-.6-.1-.2-.2-.3-.4-.5s-.4-.3-.6-.4c-.3-.1-.5-.3-.9-.5-.3-.2-.7-.3-.9-.5-.3-.2-.5-.4-.8-.6-.2-.2-.4-.5-.5-.8-.1-.3-.2-.7-.2-1.1 0-1.1.4-2 1.2-2.7.8-.7 2-1 3.5-1 .7 0 1.4.1 1.9.2s.9.3 1.1.4l-.8 1.7c-.2-.1-.6-.2-1-.4-.5-.1-1-.2-1.6-.2-.3 0-.6 0-.9.1-.3.1-.5.2-.8.3-.2.1-.4.3-.6.6-.1.2-.2.5-.2.8 0 .4.2.7.5 1 .3.3.8.5 1.4.8.4.2.7.4 1.1.6.3.2.6.4.8.6.2.2.4.5.5.8.1.3.2.7.2 1.1 0 .6-.1 1.2-.4 1.7-.2.5-.6.9-1 1.2-.4.3-.9.6-1.5.7-.6.2-1.2.2-1.9.2-.5 0-1 0-1.4-.1-.4-.1-.8-.1-1.1-.2-.3-.1-.6-.2-.8-.3-.2-.1-.4-.2-.5-.2l.8-1.7c.1.1.3.1.4.2.2.1.4.2.7.3.3.1.6.2.9.2.5.1.8.2 1.2.2zM172.5 131.6c.3 0 .6 0 1-.1l.9-.3c.3-.1.5-.3.6-.6.2-.2.2-.5.2-.9 0-.2 0-.4-.1-.6-.1-.2-.2-.3-.4-.5s-.4-.3-.6-.4c-.3-.1-.5-.3-.9-.5-.3-.2-.7-.3-1-.5-.3-.2-.5-.4-.8-.6-.2-.2-.4-.5-.5-.8-.1-.3-.2-.7-.2-1.1 0-1.1.4-2 1.2-2.7.8-.7 2-1 3.5-1 .7 0 1.4.1 1.9.2s.9.3 1.1.4l-.8 1.7c-.2-.1-.5-.2-1-.4-.5-.1-1-.2-1.6-.2-.3 0-.6 0-.9.1-.3.1-.5.2-.8.3-.2.1-.4.3-.6.6-.1.2-.2.5-.2.8 0 .4.2.7.5 1 .3.3.8.5 1.4.8.4.2.7.4 1 .6.3.2.6.4.8.6.2.2.4.5.5.8.1.3.2.7.2 1.1 0 .6-.1 1.2-.4 1.7-.2.5-.6.9-1 1.2-.4.3-.9.6-1.5.7-.6.2-1.2.2-1.9.2-.5 0-1 0-1.4-.1-.4-.1-.8-.1-1.1-.2-.3-.1-.6-.2-.8-.3-.2-.1-.4-.2-.5-.2l.8-1.7c.1.1.3.1.4.2.2.1.4.2.7.3.3.1.6.2.9.2.8.1 1.1.2 1.4.2zM180.9 133h-2.1l2.8-11.7h2.1l-2.8 11.7zm2.5-13.8c-.3 0-.6-.1-.9-.3-.2-.2-.4-.5-.4-.9 0-.5.2-.9.5-1.1.3-.3.6-.4 1-.4.3 0 .6.1.9.3.2.2.4.5.4.9 0 .5-.2.8-.5 1.1-.3.2-.7.4-1 .4zM189.5 133.3c-.8 0-1.4-.1-2-.3-.6-.2-1-.5-1.4-.9-.4-.4-.7-.8-.8-1.3-.2-.5-.3-1.1-.3-1.6 0-1.1.2-2.1.5-3 .3-1 .8-1.8 1.4-2.6.6-.8 1.3-1.3 2.1-1.8.9-.4 1.8-.7 2.9-.7.6 0 1.1.1 1.6.2.4.2.8.4 1.1.6.3.3.5.6.6.9.1.4.2.7.2 1.1 0 .7-.1 1.3-.4 1.8-.3.5-.6.9-1 1.2-.4.3-.9.6-1.5.8-.6.2-1.1.3-1.8.4-.6.1-1.2.2-1.8.2-.6 0-1.2.1-1.8.1v.5c0 .3 0 .7.1 1 .1.3.2.6.5.8.2.2.5.4.9.6.4.1.9.2 1.6.2.3 0 .6 0 .9-.1.3-.1.6-.1.9-.2.3-.1.5-.2.7-.2.2-.1.4-.2.5-.2l.2 1.8c-.3.2-.8.3-1.5.5-.8.1-1.5.2-2.4.2zm-2.2-6.4c.9 0 1.7-.1 2.4-.2s1.3-.2 1.9-.4c.5-.2.9-.5 1.2-.8.3-.3.4-.8.4-1.4 0-.1 0-.3-.1-.4-.1-.2-.1-.3-.3-.4-.1-.1-.3-.2-.5-.3-.2-.1-.5-.1-.8-.1-.5 0-1 .1-1.5.3-.5.2-.9.5-1.2.9-.4.4-.7.8-.9 1.3-.3.4-.5.9-.6 1.5zM203.9 133c-.2-.8-.4-1.6-.5-2.5-.2-.9-.3-1.9-.5-2.9-.1-1-.2-2-.3-3.1-.1-1.1-.1-2.1-.2-3.2h2.1c0 .7 0 1.5.1 2.4.1.8.1 1.7.2 2.5l.3 2.4c.1.8.2 1.5.3 2.1.5-.6.9-1.2 1.4-2 .5-.8 1-1.6 1.4-2.4.5-.8.9-1.7 1.2-2.6.4-.9.7-1.6.9-2.4h2.1c-.3 1-.7 2-1.3 3.1-.5 1.1-1.1 2.1-1.7 3.1-.6 1-1.2 2-1.9 3-.7.9-1.3 1.8-1.9 2.5h-1.7zM216.5 133.3c-1.2 0-2.2-.4-2.9-1.1-.7-.7-1-1.7-1-3 0-.9.1-1.8.4-2.8.3-1 .6-1.9 1.2-2.7.5-.8 1.2-1.5 2.1-2 .9-.5 1.9-.8 3.1-.8 1.2 0 2.2.4 2.9 1.1.7.7 1 1.7 1 3 0 .9-.1 1.8-.4 2.8-.2 1-.6 1.8-1.2 2.7-.5.8-1.2 1.5-2.1 2-.8.6-1.9.8-3.1.8zm.4-1.8c.7 0 1.3-.2 1.8-.6.5-.4 1-.9 1.4-1.5.4-.6.7-1.3.9-2 .2-.7.3-1.4.3-2.1 0-.8-.2-1.4-.5-1.8-.3-.5-.9-.7-1.7-.7-.7 0-1.3.2-1.8.6-.5.4-1 .9-1.4 1.5-.4.6-.7 1.3-.8 2-.2.7-.3 1.5-.3 2.1 0 .8.2 1.4.5 1.8.2.5.8.7 1.6.7zM229 133.3c-1.2 0-2.2-.4-2.9-1.1-.7-.7-1-1.7-1-3 0-.9.1-1.8.4-2.8.2-1 .6-1.9 1.2-2.7.5-.8 1.2-1.5 2.1-2 .9-.5 1.9-.8 3.1-.8 1.2 0 2.2.4 2.9 1.1.7.7 1 1.7 1 3 0 .9-.1 1.8-.4 2.8-.3 1-.6 1.8-1.2 2.7-.5.8-1.2 1.5-2.1 2-.9.6-1.9.8-3.1.8zm.4-1.8c.7 0 1.3-.2 1.8-.6.5-.4 1-.9 1.4-1.5.4-.6.7-1.3.8-2 .2-.7.3-1.4.3-2.1 0-.8-.2-1.4-.5-1.8-.3-.5-.9-.7-1.7-.7-.7 0-1.3.2-1.8.6-.5.4-1 .9-1.4 1.5-.4.6-.6 1.3-.8 2-.2.7-.3 1.5-.3 2.1 0 .8.2 1.4.5 1.8.3.5.8.7 1.7.7zM243.7 121h.6c.2 0 .5 0 .7.1.2 0 .4.1.6.1.2 0 .3.1.4.1l-.6 1.8c-.3-.1-.6-.2-1-.3-.4-.1-.8-.1-1.1-.1-.3 0-.6 0-.9.1-.3 0-.6.1-.8.2l-2.4 9.9H237l2.7-11.3c.6-.2 1.2-.4 1.9-.5.7 0 1.4-.1 2.1-.1zM264.1 121c.7 0 1.2.1 1.7.3.5.2.8.5 1.1.8.3.3.5.7.6 1.2.1.5.2.9.2 1.5 0 .3 0 .7-.1 1.1-.1.4-.1.8-.2 1.1l-1.4 6h-2.1l1.3-5.5c.1-.3.2-.7.3-1.2.1-.4.1-.9.1-1.3 0-.3 0-.6-.1-.8-.1-.3-.2-.5-.3-.7-.2-.2-.4-.4-.7-.5-.3-.1-.6-.2-1.1-.2-.5 0-.9.1-1.4.3-.5.2-.8.4-1.1.6 0 .2.1.4.1.6v.6c0 .3 0 .7-.1 1-.1.4-.1.7-.2 1l-1.4 6h-2.1l1.3-5.5c.1-.3.2-.7.3-1.2.1-.4.1-.9.1-1.3 0-.3 0-.6-.1-.8-.1-.3-.2-.5-.3-.7-.1-.2-.3-.3-.6-.5-.2-.1-.5-.2-.9-.2s-.7 0-1.1.1c-.4 0-.7.1-.9.2l-2.4 9.9h-2.1l2.7-11.3c.7-.2 1.4-.4 2.2-.5.8-.1 1.5-.2 2.2-.2.6 0 1.2.1 1.6.3.4.2.8.5 1 .9.2-.1.4-.2.6-.4.3-.1.6-.3.9-.4.3-.1.7-.2 1.1-.3.4.1.8 0 1.3 0zM271.2 133h-2.1l2.8-11.7h2.1l-2.8 11.7zm2.4-13.8c-.3 0-.6-.1-.9-.3-.2-.2-.3-.5-.3-.9 0-.5.1-.9.4-1.1.3-.3.6-.4 1-.4.3 0 .6.1.9.3.2.2.4.5.4.9 0 .5-.2.8-.5 1.1-.3.2-.6.4-1 .4zM277.6 131.6c.3 0 .6 0 1-.1l.9-.3c.2-.1.4-.3.6-.6.2-.2.2-.5.2-.9 0-.2 0-.4-.1-.6-.1-.2-.2-.3-.4-.5s-.4-.3-.6-.4c-.2-.1-.5-.3-.9-.5-.3-.2-.7-.3-.9-.5-.3-.2-.5-.4-.8-.6-.2-.2-.4-.5-.5-.8-.1-.3-.2-.7-.2-1.1 0-1.1.4-2 1.2-2.7.8-.7 2-1 3.5-1 .7 0 1.4.1 1.9.2s.9.3 1.1.4l-.8 1.7c-.2-.1-.6-.2-1-.4-.5-.1-1-.2-1.6-.2-.3 0-.6 0-.9.1-.3.1-.5.2-.8.3-.2.1-.4.3-.6.6-.1.2-.2.5-.2.8 0 .4.2.7.5 1 .3.3.8.5 1.4.8.4.2.7.4 1 .6.3.2.6.4.8.6.2.2.4.5.5.8.1.3.2.7.2 1.1 0 .6-.1 1.2-.4 1.7-.2.5-.6.9-1 1.2-.4.3-.9.6-1.5.7-.6.2-1.2.2-1.9.2-.5 0-1 0-1.4-.1-.4-.1-.8-.1-1.1-.2-.3-.1-.6-.2-.8-.3-.2-.1-.4-.2-.5-.2l.8-1.7c.1.1.3.1.4.2.2.1.4.2.7.3.3.1.6.2.9.2.6.1 1 .2 1.3.2zM286.9 131.6c.3 0 .6 0 1-.1l.9-.3c.3-.1.5-.3.6-.6.2-.2.2-.5.2-.9 0-.2 0-.4-.1-.6-.1-.2-.2-.3-.4-.5s-.4-.3-.6-.4c-.3-.1-.5-.3-.9-.5-.3-.2-.7-.3-.9-.5-.3-.2-.5-.4-.8-.6-.2-.2-.4-.5-.5-.8-.1-.3-.2-.7-.2-1.1 0-1.1.4-2 1.2-2.7.8-.7 2-1 3.5-1 .7 0 1.4.1 1.9.2s.9.3 1.1.4l-.8 1.7c-.2-.1-.5-.2-1-.4-.5-.1-1-.2-1.6-.2-.3 0-.6 0-.9.1-.3.1-.5.2-.8.3-.2.1-.4.3-.6.6-.1.2-.2.5-.2.8 0 .4.2.7.5 1 .3.3.8.5 1.4.8.4.2.7.4 1 .6.3.2.6.4.8.6.2.2.4.5.5.8.1.3.2.7.2 1.1 0 .6-.1 1.2-.4 1.7-.2.5-.6.9-1 1.2-.4.3-.9.6-1.5.7-.6.2-1.2.2-1.9.2-.5 0-1 0-1.4-.1-.4-.1-.8-.1-1.1-.2-.3-.1-.6-.2-.8-.3-.2-.1-.4-.2-.5-.2l.8-1.7c.1.1.2.1.4.2s.4.2.7.3c.3.1.6.2.9.2.6.1.9.2 1.3.2zM295.3 133h-2.1l2.8-11.7h2.1l-2.8 11.7zm2.4-13.8c-.3 0-.6-.1-.9-.3-.2-.2-.3-.5-.3-.9 0-.5.1-.9.5-1.1.3-.3.6-.4 1-.4.3 0 .6.1.9.3.2.2.4.5.4.9 0 .5-.2.8-.5 1.1-.4.2-.7.4-1.1.4zM303.8 133.3c-.8 0-1.4-.1-2-.3-.6-.2-1-.5-1.4-.9-.4-.4-.7-.8-.8-1.3-.2-.5-.3-1.1-.3-1.6 0-1.1.2-2.1.5-3 .3-1 .8-1.8 1.4-2.6.6-.8 1.3-1.3 2.1-1.8.8-.4 1.8-.7 2.9-.7.6 0 1.1.1 1.6.2.4.2.8.4 1.1.6.3.3.5.6.6.9.1.4.2.7.2 1.1 0 .7-.1 1.3-.4 1.8-.3.5-.6.9-1 1.2-.4.3-.9.6-1.5.8-.6.2-1.2.3-1.8.4-.6.1-1.2.2-1.8.2-.6 0-1.2.1-1.8.1v.5c0 .3 0 .7.1 1 .1.3.2.6.5.8.2.2.5.4.9.6.4.1.9.2 1.6.2.3 0 .6 0 .9-.1.3-.1.6-.1.9-.2.3-.1.5-.2.7-.2.2-.1.4-.2.5-.2l.2 1.8c-.3.2-.8.3-1.5.5-.7.1-1.5.2-2.4.2zm-2.2-6.4c.9 0 1.7-.1 2.4-.2s1.3-.2 1.9-.4c.5-.2.9-.5 1.2-.8.3-.3.4-.8.4-1.4 0-.1 0-.3-.1-.4-.1-.2-.1-.3-.3-.4-.1-.1-.3-.2-.5-.3-.2-.1-.5-.1-.8-.1-.5 0-1 .1-1.5.3-.5.2-.9.5-1.2.9-.4.4-.7.8-.9 1.3-.2.4-.4.9-.6 1.5z"/><g><path class="st2" d="M56.8 113.4c-2.9.6-5.9.9-9 .9C21.4 114.2 0 92.9 0 66.5s21.4-47.7 47.7-47.7c5.3 0 10.5.9 15.2 2.5.2.1.3.1.2.3 0 .1-.1.2-.1.3 0 .1-.1.2-.4.1-4.7-1.6-9.7-2.4-15-2.4-25 0-45.2 20.3-45.2 45.3 0 25 20.3 45.2 45.2 45.2 2.2 0 4.4-.2 6.5-.5 1-.1 1.3.4 1.7.7.4.4 1 1.3 1.2 1.6.5.7.8 1.2-.2 1.5z"/><path class="st2" d="M25.8 3.7C84-14.7 143.2 36.4 96.4 135.8c-1.1 2.2-2 1.3-2.7.8-1-.9-4.2-4.6-4.7-5.5-.3-.6-.4-2 .2-3.3C134 31.6 80.3-11.6 25.7 4.5c-.4.1-.6-.6.1-.8z"/><path class="st2" d="M69 54.1l.1.3c.1.2.3.3.6.3 24-1.7 16.9 22.6-1.3 46-2.1 2.7-2.4 3.9-1.7 5.6.7 1.7 6.5 8.7 8 9.9 1.7 1.3 4.5 1.3 6-1.1 28-42.1 6.8-65.3-11.5-61.7-.3.1-.3.4-.2.7zM67.7 54.9zM58.1 64.8c0 5.7-4.6 10.3-10.3 10.3-5.7 0-10.3-4.6-10.3-10.3 0-5.7 4.6-10.3 10.3-10.3 5.7 0 10.3 4.6 10.3 10.3z"/></g></svg>